<mxfile host="www.draw.io" modified="2019-11-09T00:19:01.106Z" agent="Mozilla/5.0 (Windows NT 10.0; Win64; x64) AppleWebKit/537.36 (KHTML, like Gecko) Chrome/78.0.3904.87 Safari/537.36" etag="-YeeOazVLD3T-m3t2Iwe" version="12.2.3" type="github" pages="1">
  <diagram id="nDqt4OHVF8OYWS3F5ZIa" name="Page-1">
    <mxGraphModel dx="846" dy="607" grid="1" gridSize="10" guides="1" tooltips="1" connect="1" arrows="1" fold="1" page="1" pageScale="1" pageWidth="850" pageHeight="1100" math="0" shadow="0">
      <root>
        <mxCell id="0"/>
        <mxCell id="1" parent="0"/>
        <mxCell id="npQW0QnKVg932VRmmYPV-1" value="TEst 3" style="rounded=1;whiteSpace=wrap;html=1;" parent="1" vertex="1">
          <mxGeometry x="120" y="120" width="120" height="60" as="geometry"/>
        </mxCell>
        <mxCell id="npQW0QnKVg932VRmmYPV-2" value="AAAA" style="rounded=1;whiteSpace=wrap;html=1;" parent="1" vertex="1">
          <mxGeometry x="260" y="170" width="120" height="60" as="geometry"/>
        </mxCell>
      </root>
    </mxGraphModel>
  </diagram>
</mxfile>
